<svg width="40" height="40" viewBox="0 0 40 40" fill="none" xmlns="http://www.w3.org/2000/svg">
<path d="M20 0C16.4917 0 13.5704 2.62143 13.0801 6H6.23828C6.15312 5.98543 6.06686 5.97824 5.98047 5.97852C5.90582 5.98013 5.83139 5.98731 5.75781 6H2.5C1.95905 5.99235 1.45588 6.27656 1.18317 6.74381C0.91046 7.21106 0.91046 7.78895 1.18317 8.25619C1.45588 8.72344 1.95905 9.00764 2.5 8.99999H4.63867L7.15625 35.0293C7.42733 37.8359 9.81177 40 12.6309 40H27.3672C30.1864 40 32.5708 37.8361 32.8418 35.0293L35.3613 8.99999H37.5C38.0409 9.00764 38.5441 8.72344 38.8168 8.25619C39.0895 7.78894 39.0895 7.21105 38.8168 6.74381C38.5441 6.27656 38.0409 5.99235 37.5 6H34.2441C34.085 5.97419 33.9228 5.97419 33.7637 6H26.9199C26.4296 2.62143 23.5083 0 20 0ZM20 3C21.8791 3 23.4208 4.26816 23.8613 6H16.1387C16.5792 4.26816 18.1208 3 20 3ZM7.65039 8.99999H32.3476L29.8555 34.7402C29.7304 36.0353 28.6679 37 27.3672 37H12.6309C11.3319 37 10.2675 36.0336 10.1426 34.7402L7.65039 8.99999ZM16.4766 13.9785C15.6489 13.9914 14.9881 14.6723 15 15.5V30.5C14.9923 31.0409 15.2766 31.5441 15.7438 31.8168C16.2111 32.0895 16.7889 32.0895 17.2562 31.8168C17.7234 31.5441 18.0076 31.0409 18 30.5V15.5C18.0058 15.0944 17.8471 14.7037 17.5601 14.417C17.2731 14.1304 16.8822 13.9722 16.4766 13.9785ZM23.4765 13.9785C22.6489 13.9914 21.9881 14.6723 22 15.5V30.5C21.9923 31.0409 22.2765 31.5441 22.7438 31.8168C23.211 32.0895 23.7889 32.0895 24.2562 31.8168C24.7234 31.5441 25.0076 31.0409 25 30.5V15.5C25.0058 15.0944 24.8471 14.7037 24.5601 14.417C24.273 14.1304 23.8822 13.9722 23.4765 13.9785Z" fill="#FD5F00"/>
</svg>
