<svg width="40" height="40" viewBox="0 0 40 40" fill="none" xmlns="http://www.w3.org/2000/svg">
<path d="M35.0024 9.36711L36.3075 7.98735C37.663 6.55443 37.663 4.22241 36.3075 2.78893C35.6512 2.09565 34.7788 1.71452 33.8486 1.71452C32.9184 1.71452 32.0454 2.09622 31.3896 2.78949L30.0849 4.16869L35.0024 9.36711ZM28.9504 5.36806L19.2851 15.5857C19.0792 15.8034 18.9224 16.072 18.8315 16.3632L17.0396 22.0864C16.9438 22.3906 17.0192 22.7259 17.2337 22.9527C17.3872 23.1144 17.5916 23.2009 17.8013 23.2009C17.8858 23.2009 17.9708 23.1868 18.0537 23.1579L23.466 21.263C23.7425 21.1669 23.9971 21.0012 24.2031 20.7829L33.8678 10.5659L28.9504 5.36806Z" fill="#005792"/>
<path d="M23.1274 5.42847H7C4.23858 5.42847 2 7.66705 2 10.4285V32.9999C2 35.7613 4.23858 37.9999 7 37.9999H27.8108C30.5722 37.9999 32.8108 35.7613 32.8108 32.9999V17.5264" stroke="#005792" stroke-width="3"/>
</svg>
