<svg width="14" height="13" viewBox="0 0 14 13" fill="none" xmlns="http://www.w3.org/2000/svg">
<mask id="mask0_13_92" style="mask-type:luminance" maskUnits="userSpaceOnUse" x="0" y="0" width="14" height="13">
<path d="M13.9641 0.86145H0.78125V12.8139H13.9641V0.86145Z" fill="white"/>
</mask>
<g mask="url(#mask0_13_92)">
<path d="M13.2363 0.86145H1.50905C1.10698 0.86145 0.78125 1.15677 0.78125 1.52132V12.1545C0.78125 12.5185 1.10698 12.8139 1.50905 12.8139H7.82307V8.18529H6.10491V6.38145H7.82307V5.05127C7.82307 3.50741 8.86286 2.66676 10.3822 2.66676C11.11 2.66676 11.7351 2.71607 11.9174 2.73798V4.35155L10.8639 4.35205C10.0378 4.35205 9.87794 4.70813 9.87794 5.23005V6.38199H11.8482L11.5917 8.18577H9.87794V12.8139H13.2374C13.6383 12.8139 13.9641 12.5185 13.9641 12.154V1.52132C13.9641 1.15677 13.6383 0.86145 13.2363 0.86145Z" fill="#F6F6E9"/>
</g>
</svg>
