<svg width="21" height="21" viewBox="0 0 21 21" fill="none" xmlns="http://www.w3.org/2000/svg">
<path d="M8.83333 0.5C4.24083 0.5 0.5 4.24083 0.5 8.83333C0.5 13.4258 4.24083 17.1667 8.83333 17.1667C10.8304 17.1667 12.6645 16.4575 14.1019 15.2803L19.0775 20.2558C19.2865 20.4736 19.5969 20.5613 19.8889 20.4851C20.1809 20.409 20.409 20.1809 20.4851 19.8889C20.5613 19.5969 20.4736 19.2865 20.2558 19.0775L15.2803 14.1019C16.4575 12.6645 17.1667 10.8304 17.1667 8.83333C17.1667 4.24083 13.4258 0.5 8.83333 0.5ZM8.83333 2.16667C12.5251 2.16667 15.5 5.14156 15.5 8.83333C15.5 12.5251 12.5251 15.5 8.83333 15.5C5.14156 15.5 2.16667 12.5251 2.16667 8.83333C2.16667 5.14156 5.14156 2.16667 8.83333 2.16667Z" fill="#005792"/>
</svg>
