<svg width="14" height="13" viewBox="0 0 14 13" fill="none" xmlns="http://www.w3.org/2000/svg">
<path d="M13.0224 2.21283C12.5623 2.44225 12.0678 2.59676 11.5487 2.66641C12.0787 2.30998 12.4857 1.7452 12.6769 1.07215C12.1814 1.40223 11.6321 1.64219 11.0474 1.77154C10.58 1.21144 9.91241 0.86145 9.17451 0.86145C7.51788 0.86145 6.30055 2.59734 6.67471 4.39937C4.54282 4.27939 2.65221 3.13228 1.38641 1.38877C0.714171 2.68396 1.03778 4.3783 2.18007 5.2363C1.76005 5.22108 1.364 5.09174 1.0185 4.87578C0.990363 6.21074 1.84239 7.45969 3.07639 7.73769C2.71526 7.84772 2.31973 7.87347 1.91743 7.78685C2.24365 8.93163 3.19104 9.76446 4.31457 9.78787C3.23586 10.7378 1.87678 11.1621 0.515625 10.9818C1.65114 11.7994 3.00031 12.2764 4.44902 12.2764C9.21307 12.2764 11.9046 7.75759 11.7421 3.70466C12.2434 3.29791 12.6785 2.79048 13.0224 2.21283Z" fill="#F6F6E9"/>
</svg>
